<?xml version="1.0" encoding="utf-8"?>
<!-- Generator: Adobe Illustrator 18.0.0, SVG Export Plug-In . SVG Version: 6.00 Build 0)  -->
<!DOCTYPE svg PUBLIC "-//W3C//DTD SVG 1.1//EN" "http://www.w3.org/Graphics/SVG/1.1/DTD/svg11.dtd">
<svg version="1.1" id="Warstwa_1" xmlns="http://www.w3.org/2000/svg" xmlns:xlink="http://www.w3.org/1999/xlink" x="0px" y="0px"
	 viewBox="0 0 56 47" enable-background="new 0 0 56 47" xml:space="preserve">
<g>
	<path d="M30.3,28.7v-1.3c0-1.6-1.2-2.8-2.7-2.8c-1.5,0-2.7,1.3-2.7,2.8v1.3c0,1.6,1.2,2.8,2.7,2.8C29.1,31.6,30.3,30.3,30.3,28.7
		L30.3,28.7z M30.3,28.7"/>
	<g>
		<defs>
			<rect id="SVGID_1_" x="0" width="56" height="47"/>
		</defs>
		<clipPath id="SVGID_2_">
			<use xlink:href="#SVGID_1_"  overflow="visible"/>
		</clipPath>
		<path clip-path="url(#SVGID_2_)" d="M32.1,30.3c-0.6,2-2.4,3.5-4.6,3.5c-2.2,0-4-1.5-4.6-3.5H4.4c-1.2,0-2.3-0.3-3.3-0.8v12.9
			c0,2.5,2,4.6,4.4,4.6h44.2c2.4,0,4.4-2.1,4.4-4.6V29.5c-1,0.5-2.1,0.8-3.3,0.8H32.1z M32.1,30.3"/>
		<path clip-path="url(#SVGID_2_)" d="M50.6,7.2H40C39.4,3,36-0.1,31.8-0.1h-8.4c-4.2,0-7.6,3.2-8.2,7.3H4.6C2,7.2,0,9.2,0,11.8
			v10.5c0,2.5,2,4.6,4.4,4.6h18.4c0.1-1.3,0.6-2.5,1.5-3.4c0,0,0.1,0,0.1-0.1c0.2-0.2,0.4-0.4,0.6-0.5c0.1,0,0.2-0.1,0.2-0.1
			c0.2-0.1,0.4-0.2,0.5-0.3c0.1-0.1,0.3-0.1,0.5-0.2c0.1,0,0.3-0.1,0.4-0.1c0.3-0.1,0.6-0.1,1-0.1c0.3,0,0.6,0,0.9,0.1
			c0.1,0,0.3,0.1,0.4,0.1c0.2,0,0.3,0.1,0.5,0.2c0.2,0.1,0.4,0.2,0.5,0.3c0.1,0,0.2,0.1,0.2,0.1c0.2,0.2,0.4,0.3,0.6,0.5
			c0,0,0.1,0,0.1,0.1c0.9,0.9,1.4,2,1.5,3.4h18.4c2.4,0,4.4-2,4.4-4.6V11.8C55.2,9.2,53.1,7.2,50.6,7.2L50.6,7.2z M19.3,7.2
			c0.6-1.8,2.1-3,4-3h8.4c1.9,0,3.5,1.3,4,3H19.3z M19.3,7.2"/>
	</g>
</g>
</svg>
