<?xml version="1.0" encoding="utf-8"?>
<!-- Generator: Adobe Illustrator 18.0.0, SVG Export Plug-In . SVG Version: 6.00 Build 0)  -->
<!DOCTYPE svg PUBLIC "-//W3C//DTD SVG 1.1//EN" "http://www.w3.org/Graphics/SVG/1.1/DTD/svg11.dtd">
<svg version="1.1" id="Warstwa_1" xmlns="http://www.w3.org/2000/svg" xmlns:xlink="http://www.w3.org/1999/xlink" x="0px" y="0px"
	 viewBox="0 0 57 55" enable-background="new 0 0 57 55" xml:space="preserve">
<g>
	<g>
		<defs>
			<rect id="SVGID_1_" width="57" height="55"/>
		</defs>
		<clipPath id="SVGID_2_">
			<use xlink:href="#SVGID_1_"  overflow="visible"/>
		</clipPath>
		<path clip-path="url(#SVGID_2_)" d="M22.6,18.2c-3.5-1.9-7-3.8-10.5-5.8C14,9,16.3,5.5,20,2c0.5-0.5,1.1-0.8,1.8-0.9h0.8l0.6,0
			C25,1.4,26.8,3.7,27.7,5c0.7,1.2,1.4,2.4,2.1,3.6L22.6,18.2z M28.6,4.5c1.7,2.8,3.3,5.6,4.6,8.7l-5.5,3.1l16.1,1.5l6.8-14.1
			l-5.6,3.1c-1.5-3-3.5-5.4-6.4-6.7c-5.3,0-10.6,0-15.9,0.1C24.7,0,26.7,1.8,28.6,4.5L28.6,4.5z M40.9,24.6L40.9,24.6l0.1,0.1
			l4.1,8.4c1.7,0.1,3.4,0.1,5,0.1c1.7-0.1,5-0.5,6-2.1c0-0.1,0.1-0.1,0.1-0.2l0.4-0.7c0-0.3,0-0.6-0.1-0.9
			c-1.4-4.8-3.4-8.4-5.7-11.7c-3.5,2-6.9,4-10.4,5.9L40.9,24.6z M50.2,34.2c-3.3,0.1-6.7,0-10.2-0.4l-0.1-6.1l-9.2,12.7L40.2,53
			l-0.1-6.2c3.4,0.2,6.6-0.2,9.2-2.1c2.6-4.4,5.1-8.9,7.7-13.3C56.1,33.2,53.5,34,50.2,34.2L50.2,34.2z M16.4,35.1
			c-0.7,1.3-1.4,2.7-2.1,4.1c-0.6,1.6-1.7,4.5-0.6,6.1c0,0.1,0.1,0.1,0.1,0.2l0.5,0.7c0.4,0.3,0.9,0.5,1.4,0.5
			c5.1,0.9,9.4,0.7,13.5,0.1c-0.4-3.8-0.7-7.7-1.1-11.5L16.4,35.1z M13.4,38.8c1.4-2.9,2.9-5.8,4.7-8.6l5.8,2.6l-8-13.5L0,22.1
			l5.9,2.6c-1.7,2.9-2.6,5.9-2,8.9C6.9,37.7,10,41.8,13,46C11.8,44.4,12.2,41.8,13.4,38.8L13.4,38.8z M13.4,38.8"/>
	</g>
</g>
</svg>
