<?xml version="1.0" encoding="utf-8"?>
<!-- Generator: Adobe Illustrator 18.0.0, SVG Export Plug-In . SVG Version: 6.00 Build 0)  -->
<!DOCTYPE svg PUBLIC "-//W3C//DTD SVG 1.1//EN" "http://www.w3.org/Graphics/SVG/1.1/DTD/svg11.dtd">
<svg version="1.1" id="Warstwa_1" xmlns="http://www.w3.org/2000/svg" xmlns:xlink="http://www.w3.org/1999/xlink" x="0px" y="0px"
	 viewBox="0 0 112 53" enable-background="new 0 0 112 53" xml:space="preserve">
<g>
	<path fill-rule="evenodd" clip-rule="evenodd" fill="#E03127" d="M77.9,17c1,0,1.9-0.2,2.7-0.6c0.9-0.4,1.6-1,2-1.7v1.9h1.6V4.3
		h-1.6v2c-0.5-0.7-1.2-1.3-2-1.7C79.9,4.2,79,4,78,4c0,0-0.1,0-0.1,0c-1.8,0-3.3,0.6-4.6,1.9c-1.2,1.3-1.9,2.8-1.9,4.6
		c0,1.8,0.6,3.4,1.8,4.6C74.6,16.4,76.1,17,77.9,17L77.9,17L77.9,17L77.9,17z M77.9,15.5c-1.3,0-2.4-0.5-3.4-1.4
		c-0.9-1-1.4-2.1-1.4-3.5c0-1.4,0.5-2.7,1.4-3.7c0.9-1,2.1-1.4,3.4-1.5c0,0,0,0,0.1,0c1.2,0,2.3,0.5,3.3,1.5c1,1,1.4,2.2,1.4,3.4
		c0,1.4-0.4,2.6-1.4,3.7C80.3,15,79.2,15.5,77.9,15.5C77.9,15.5,77.9,15.5,77.9,15.5L77.9,15.5z M88.4,16.7h-1.6V4.3h1.5v1.4
		c0.4-0.5,0.8-1,1.3-1.2c0.5-0.3,1-0.4,1.7-0.4v1.7c-1,0.1-1.7,0.4-2.2,0.9c-0.4,0.5-0.7,1.3-0.7,2.5V16.7L88.4,16.7z M102.5,6.2
		c0.5-0.7,1.1-1.3,1.9-1.6c0.8-0.4,1.6-0.5,2.5-0.5c1.7,0,2.9,0.5,3.7,1.5c0.8,1,1.2,2.6,1.2,4.9v6.2h-1.6v-6.6
		c0-1.6-0.3-2.8-0.8-3.5c-0.6-0.7-1.4-1.1-2.7-1.1c-0.7,0-1.3,0.2-1.9,0.4c-0.5,0.3-1,0.7-1.3,1.3c-0.2,0.3-0.3,0.7-0.4,1.2
		c-0.1,0.4-0.1,1.2-0.1,2.3v6h-1.5V9.7c0-1.4-0.3-2.5-0.9-3.2c-0.6-0.7-1.5-1-2.7-1c-0.7,0-1.4,0.2-1.9,0.4c-0.6,0.3-1,0.7-1.3,1.3
		c-0.2,0.3-0.3,0.7-0.4,1.2c-0.1,0.4-0.1,1.2-0.1,2.3v6h-1.6V4.3h1.6v1.4c0.5-0.5,1-1,1.7-1.2C96.5,4.2,97.3,4,98.1,4
		c0.9,0,1.8,0.2,2.6,0.6C101.5,5,102,5.5,102.5,6.2L102.5,6.2z M67.9,16.7h-1.5v-11h-1.7V4.3h1.6V3.9c0-1.3,0.3-2.3,1-2.9
		c0.7-0.6,1.7-1,3.1-1h0.1v1.4c-1,0-1.6,0.2-2,0.5c-0.4,0.4-0.6,1-0.6,1.9v0.3h2.6v1.4h-2.6V16.7L67.9,16.7z M96,24.3
		c-1.9,0-3.4,0.7-4.6,1.9c-1.3,1.2-1.9,2.8-1.9,4.7c0,1.8,0.6,3.4,1.9,4.7c1.3,1.3,2.8,1.9,4.6,1.9c0,0,0,0,0.1,0
		c1.4,0,2.6-0.4,3.7-1.1c1-0.8,1.9-1.8,2.5-3.2h-1.8c-0.4,0.9-1,1.6-1.8,2C97.8,35.7,96.9,36,96,36c0,0,0,0,0,0
		c-1.3,0-2.4-0.4-3.3-1.3c-0.9-0.8-1.4-1.9-1.5-3.3H96h6.6v-0.1c0-2.1-0.6-3.8-1.8-5.1c-1.2-1.3-2.8-1.9-4.7-1.9
		C96.1,24.3,96,24.3,96,24.3L96,24.3z M96,25.8c1.3,0,2.3,0.4,3.1,1.1c0.8,0.7,1.4,1.8,1.7,3.2H96h-4.8c0.2-1.3,0.7-2.4,1.5-3.1
		c0.9-0.8,1.9-1.1,3.1-1.1C95.9,25.8,95.9,25.8,96,25.8L96,25.8z M103.9,33.2h1.7v0c0,0.8,0.2,1.4,0.7,1.9c0.5,0.5,1,0.8,1.7,0.8
		c0.6,0,1.2-0.2,1.6-0.6c0.4-0.4,0.6-0.9,0.6-1.5c0-0.6-0.2-1.1-0.5-1.5c-0.3-0.3-0.9-0.7-1.8-1c-1.4-0.5-2.3-1-2.8-1.5
		c-0.4-0.5-0.6-1.2-0.6-2.1c0-1,0.3-1.8,1.1-2.5c0.7-0.7,1.6-1,2.6-1c1.1,0,2,0.3,2.6,0.9c0.7,0.6,1,1.5,1,2.5H110
		c0-0.6-0.2-1-0.6-1.4c-0.3-0.3-0.8-0.5-1.4-0.5c-0.6,0-1,0.2-1.3,0.6c-0.4,0.3-0.6,0.8-0.6,1.3c0,0.4,0.1,0.7,0.2,0.9
		c0.1,0.2,0.4,0.5,0.7,0.7c0.3,0.2,0.8,0.4,1.4,0.6c0.6,0.2,1,0.3,1.2,0.4c0.8,0.3,1.4,0.8,1.7,1.3c0.4,0.6,0.6,1.2,0.6,2.1
		c0,1.1-0.4,2-1.2,2.7c-0.8,0.7-1.7,1.1-2.9,1.1c-1.2,0-2.1-0.4-2.9-1.2C104.4,35.6,104,34.5,103.9,33.2L103.9,33.2z M68,37.1h-1.6
		V26h-1.7v-1.4h1.6v-0.3c0-1.3,0.3-2.3,1-3c0.7-0.6,1.7-1,3.1-1h0.1v1.5c-1,0-1.7,0.2-2.1,0.6c-0.4,0.4-0.6,1-0.6,1.9v0.3h2.7V26H68
		V37.1L68,37.1z M74.1,37.1h-1.6V24.6H74v1.5c0.4-0.6,0.8-1,1.3-1.2c0.5-0.2,1-0.4,1.6-0.4v1.8c-1,0.1-1.7,0.4-2.2,0.9
		c-0.4,0.5-0.7,1.3-0.7,2.5V37.1L74.1,37.1z M80.4,22.2h-1.6v-1.7h1.6V22.2L80.4,22.2z M78.8,37.1V24.6h1.6v12.5H78.8L78.8,37.1z
		 M84.5,37.1V26.2h-2.4v-1.6h2.4v-4.1h1.6v4.1h2.4v1.6h-2.4v10.9H84.5L84.5,37.1z M3.1,0h47.3c1.7,0,3.1,1.3,3.1,2.9v17
		c0,22.1-11.9,30.6-33.1,30.6H3.1c-1.7,0-3.1-1.3-3.1-2.9V2.9C0,1.3,1.4,0,3.1,0L3.1,0z"/>
	<path fill-rule="evenodd" clip-rule="evenodd" fill="#FFFFFF" d="M37.8,7.9v4.3c0,0.3,0,0.3,0.3,0.3h0.1c3.4,0.1,5.2,3,5.1,5.8
		c-0.1,2.5-1.8,4.7-5.3,4.7l-2.2,0l-0.1,0c-0.4,0-0.4,0-0.4,0.3v4.4c0,0.4,0,0.4,0.4,0.4h2.8c6.7,0,10.3-4.9,10.4-9.9
		C49,13.1,45.6,7.8,38.2,7.6c0,0-0.1,0-0.1,0C37.7,7.6,37.7,7.6,37.8,7.9L37.8,7.9z M11.5,42.9h-5c-0.3,0-0.3,0-0.3-0.3V23.4
		c0-0.3,0-0.3,0.3-0.3h4.1c0.3,0,0.3,0,0.3-0.3v-4.2c0-0.3,0-0.3-0.4-0.3H6.3c-0.3,0-0.3,0-0.3-0.3v-0.1v-0.6c0-3.2,0.9-5.6,2.7-7.2
		c1.7-1.5,4.3-2.4,7.6-2.4c0,0,0.1,0,0.1,0c0.3,0,0.3,0,0.3,0.3v4.9h-0.5c-1.7,0-2.9,0.4-3.6,1.1c-0.7,0.8-1.1,2-1.1,3.8v0.2
		c0,0.3,0,0.3,0.4,0.3h4.4c0.4,0,0.4,0,0.4,0.3v4.2c0,0.3,0,0.3-0.3,0.3h-4.2c-0.4,0-0.4,0-0.4,0.3v19.1
		C11.9,42.9,11.9,42.9,11.5,42.9L11.5,42.9z M26,42.9h-5c-0.3,0-0.3,0-0.3-0.3V23.4c0-0.3,0-0.3,0.3-0.3h0.1l4.4,0v-4.6
		c0-0.3,0-0.3-0.4-0.3h-4.2c-0.4,0-0.4,0-0.4-0.3v-0.1v-0.6c0-3.2,0.9-5.6,2.7-7.2c1.7-1.5,4.3-2.4,7.7-2.4c0,0,0.1,0,0.1,0
		c0.3,0,0.3,0,0.3,0.3v4.9h-0.5c-1.7,0-2.9,0.4-3.6,1.1c-0.8,0.7-1.1,2-1.1,3.8v0.2c0,0.3,0,0.3,0.4,0.3h4.4c0.4,0,0.4,0,0.4,0.3
		v4.6h-5v19.5C26.3,42.9,26.3,42.9,26,42.9L26,42.9z"/>
	<path fill-rule="evenodd" clip-rule="evenodd" fill="#FCB131" d="M50.3,50.5l-8.3,0H42c-0.3,0-0.3,0,0-0.2c0,0,0.1,0,0.1,0
		c8.4-4.6,10.7-12.1,11.3-17.8c0,0,0-0.1,0-0.1c0-0.1,0.1-0.1,0.1,0v0.1v15.1C53.5,49.2,52.1,50.5,50.3,50.5L50.3,50.5z M107.8,43.5
		L107.8,43.5c0.8,0,1.5,0.3,2.1,0.9c0.6,0.6,0.9,1.4,0.9,2.2c0,0.8-0.3,1.5-0.9,2.1c-0.6,0.6-1.3,0.9-2.1,0.9h0
		c-0.8,0-1.5-0.3-2.1-0.9c-0.6-0.6-0.9-1.4-0.9-2.3c0-0.8,0.3-1.6,0.9-2.2C106.3,43.8,107,43.5,107.8,43.5L107.8,43.5z M107.8,42.6
		L107.8,42.6c-1.1,0-2.1,0.4-2.9,1.2c-0.8,0.8-1.1,1.7-1.1,2.8c0,1.2,0.4,2.1,1.1,2.9c0.8,0.8,1.7,1.2,2.9,1.2l0,0
		c0.6,0,1.1-0.1,1.7-0.4c0.5-0.2,0.9-0.6,1.3-1v1.2h1V40.3h-1v2V44c-0.3-0.5-0.8-0.8-1.3-1C109,42.7,108.4,42.6,107.8,42.6
		L107.8,42.6z M90.6,50.7c0.6,0,1.2-0.1,1.7-0.4c0.5-0.3,0.9-0.6,1.2-1v1.2h1v-7.7h-1V44c-0.3-0.4-0.7-0.8-1.2-1
		c-0.5-0.2-1-0.4-1.7-0.4c0,0,0,0-0.1,0c-1.1,0-2.1,0.4-2.8,1.2c-0.8,0.8-1.2,1.7-1.2,2.9c0,1.1,0.4,2.1,1.1,2.8
		C88.5,50.3,89.4,50.7,90.6,50.7L90.6,50.7L90.6,50.7z M90.6,49.8c-0.8,0-1.5-0.3-2.1-0.9c-0.6-0.6-0.9-1.3-0.9-2.2
		c0-0.9,0.3-1.7,0.9-2.3c0.6-0.6,1.3-0.9,2.1-0.9c0,0,0,0,0.1,0c0.7,0,1.4,0.3,2,0.9c0.6,0.6,0.9,1.3,0.9,2.1c0,0.9-0.3,1.6-0.9,2.3
		C92.1,49.5,91.4,49.8,90.6,49.8C90.6,49.8,90.6,49.8,90.6,49.8L90.6,49.8z M96.1,42.8h1v0.9c0.3-0.3,0.6-0.6,1-0.8
		c0.4-0.2,0.9-0.2,1.4-0.2c0.6,0,1.1,0.1,1.6,0.3c0.4,0.2,0.8,0.5,1,0.9c0.2,0.3,0.3,0.6,0.4,1c0.1,0.4,0.1,0.9,0.1,1.6v4h-1v-4.3
		c0-0.9-0.2-1.6-0.5-2c-0.3-0.4-0.9-0.6-1.7-0.6c-0.4,0-0.8,0.1-1.2,0.3c-0.4,0.2-0.6,0.4-0.8,0.8c-0.1,0.2-0.2,0.5-0.3,0.7
		c-0.1,0.3-0.1,0.7-0.1,1.4v3.7h-1V42.8L96.1,42.8z M79.1,43.5c0.8,0,1.6,0.3,2.1,0.9c0.6,0.6,0.8,1.3,0.8,2.2
		c0,0.9-0.3,1.6-0.8,2.2c-0.6,0.6-1.3,0.9-2.1,0.9h0c-0.8,0-1.6-0.3-2.1-0.9c-0.6-0.6-0.9-1.3-0.9-2.2c0-0.9,0.3-1.6,0.8-2.2
		C77.6,43.8,78.3,43.5,79.1,43.5C79.1,43.5,79.1,43.5,79.1,43.5L79.1,43.5z M79.1,42.5C79.1,42.5,79.1,42.5,79.1,42.5
		c-1.1,0-2.1,0.4-2.8,1.2c-0.8,0.8-1.2,1.8-1.2,2.9c0,1.1,0.4,2.1,1.2,2.9c0.8,0.8,1.7,1.2,2.8,1.2h0c1.1,0,2.1-0.4,2.8-1.2
		c0.8-0.8,1.1-1.8,1.1-2.9c0-1.1-0.4-2-1.2-2.8C81.2,42.9,80.3,42.5,79.1,42.5L79.1,42.5z M84.4,50.5V40.3h1v10.2H84.4L84.4,50.5z
		 M70.3,50.7L70.3,50.7c1.1,0,2.1-0.4,2.9-1.2c0.8-0.8,1.1-1.7,1.1-2.8c0-1.2-0.4-2.1-1.1-2.9c-0.8-0.8-1.7-1.1-2.9-1.2
		c0,0,0,0-0.1,0c-0.6,0-1.1,0.1-1.7,0.4c-0.5,0.3-0.9,0.6-1.2,1v-1.3h-1V53h1v-2v-1.2v-0.5c0.3,0.4,0.8,0.8,1.3,1
		C69.2,50.6,69.7,50.7,70.3,50.7L70.3,50.7z M70.3,49.8L70.3,49.8c-0.8,0-1.5-0.3-2.1-0.9c-0.6-0.6-0.9-1.4-0.9-2.3
		c0-0.8,0.3-1.5,0.9-2.1c0.6-0.6,1.3-0.9,2-0.9c0,0,0.1,0,0.1,0c0.8,0,1.5,0.3,2.1,0.9c0.6,0.6,0.9,1.4,0.9,2.3
		c0,0.9-0.3,1.6-0.9,2.2C71.9,49.5,71.2,49.8,70.3,49.8L70.3,49.8z"/>
</g>
</svg>
