<?xml version="1.0" encoding="utf-8"?>
<!-- Generator: Adobe Illustrator 18.0.0, SVG Export Plug-In . SVG Version: 6.00 Build 0)  -->
<!DOCTYPE svg PUBLIC "-//W3C//DTD SVG 1.1//EN" "http://www.w3.org/Graphics/SVG/1.1/DTD/svg11.dtd">
<svg version="1.1" id="Warstwa_1" xmlns="http://www.w3.org/2000/svg" xmlns:xlink="http://www.w3.org/1999/xlink" x="0px" y="0px"
	 viewBox="0 0 93 46" enable-background="new 0 0 93 46" xml:space="preserve">
<g>
	<g>
		<rect x="65.4" y="17.8" fill="#FFFFFF" width="1.4" height="1.5"/>
		<rect x="65.4" y="21.4" fill="#FFFFFF" width="1.4" height="10.9"/>
		<path fill="#FFFFFF" d="M55.9,18.5c-0.6,0.6-0.8,1.4-0.8,2.6v0.3h-1.4v1.2h1.4v9.7h1.3v-9.7h2.2v-1.2h-2.2v-0.3
			c0-0.8,0.2-1.3,0.5-1.6c0.3-0.3,0.9-0.5,1.7-0.5v-1.3h-0.1C57.3,17.6,56.5,17.9,55.9,18.5z"/>
		<path fill="#FFFFFF" d="M41.8,0H2.6C1.2,0,0,1.1,0,2.5v38.8c0,1.4,1.2,2.5,2.6,2.5h14.4c17.6,0,27.4-7.4,27.4-26.6V2.5
			C44.4,1.1,43.2,0,41.8,0z M13.9,11.1h-0.4c-1.4,0-2.4,0.3-3,1c-0.6,0.7-0.9,1.8-0.9,3.3v0.1c0,0.3,0,0.3,0.3,0.3h3.7
			c0.3,0,0.3,0,0.3,0.3v3.7c0,0.3,0,0.3-0.3,0.3h-3.5c-0.3,0-0.3,0-0.3,0.3v16.6c0,0.3,0,0.3-0.3,0.3H5.5c-0.3,0-0.3,0-0.3-0.3V20.3
			c0-0.3,0-0.3,0.3-0.3h3.4c0.3,0,0.3,0,0.3-0.3v-3.7c0-0.3,0-0.3-0.3-0.3H5.3c-0.2,0-0.2,0-0.2-0.3v-0.1V15c0-2.7,0.7-4.8,2.2-6.3
			c1.4-1.3,3.5-2,6.3-2.1c0,0,0.1,0,0.1,0c0.3,0,0.3,0,0.3,0.3V11.1z M26,6.9v4.2h-0.4c-1.4,0-2.4,0.3-3,1c-0.6,0.6-0.9,1.8-0.9,3.3
			v0.1c0,0.3,0,0.3,0.3,0.3h3.7c0.3,0,0.3,0,0.3,0.3v4h-4.1v16.9c0,0.3,0,0.3-0.3,0.3h-4.1c-0.3,0-0.3,0-0.3-0.3V20.3
			c0-0.3,0-0.3,0.3-0.3h0.1l3.6,0v-4c0-0.3,0-0.3-0.3-0.3h-3.5c-0.3,0-0.3,0-0.3-0.3v-0.1V15c0-2.7,0.7-4.8,2.2-6.3
			c1.4-1.3,3.6-2,6.4-2.1c0,0,0,0,0.1,0C26,6.6,26,6.6,26,6.9z M40.6,15.8c-0.1,4.4-3.1,8.6-8.6,8.6h-2.3c-0.3,0-0.3,0-0.3-0.3v-3.8
			c0-0.3,0-0.3,0.3-0.3l0.1,0l1.8,0c2.9,0,4.3-2,4.4-4.1c0.1-2.4-1.4-4.9-4.2-5h-0.1c-0.3,0-0.3,0-0.3-0.3V6.9c0-0.3,0-0.3,0.3-0.3
			c0,0,0.1,0,0.1,0C37.8,6.8,40.7,11.4,40.6,15.8z"/>
		<path fill="#FFFFFF" d="M55.1,14.5h1.3V4.9h2.2V3.7h-2.2V3.4c0-0.8,0.1-1.3,0.5-1.6c0.3-0.3,0.9-0.5,1.7-0.5V0.1h-0.1
			c-1.1,0-2,0.3-2.6,0.8c-0.5,0.5-0.8,1.4-0.8,2.5v0.3h-1.3v1.2h1.4V14.5z"/>
		<path fill="#FFFFFF" d="M61.5,22.6v-1.3h-1.3v10.9h1.4v-6.6c0-1,0.2-1.7,0.6-2.2c0.4-0.4,1-0.7,1.8-0.8v-1.5c-0.5,0-1,0.1-1.4,0.4
			C62.2,21.8,61.8,22.1,61.5,22.6z"/>
		<path fill="#FFFFFF" d="M79.8,21.1c0,0-0.1,0-0.1,0c-1.6,0-2.8,0.6-3.8,1.6c-1,1.1-1.6,2.5-1.6,4.1c0,1.6,0.5,2.9,1.6,4.1
			c1,1.1,2.3,1.7,3.8,1.7c0,0,0,0,0.1,0c1.2,0,2.2-0.3,3-1c0.9-0.7,1.6-1.6,2.1-2.8h-1.5c-0.3,0.8-0.8,1.3-1.5,1.8
			c-0.6,0.5-1.3,0.7-2.1,0.7c0,0,0,0,0,0c-1.1,0-2-0.4-2.8-1.1c-0.8-0.7-1.2-1.7-1.2-2.9h4h5.5v-0.1c0-1.8-0.5-3.3-1.5-4.4
			C82.7,21.6,81.4,21.1,79.8,21.1z M79.7,26.1h-4c0.1-1.1,0.6-2,1.3-2.7c0.7-0.7,1.6-1,2.6-1c0,0,0.1,0,0.1,0c1.1,0,1.9,0.3,2.6,0.9
			c0.7,0.6,1.2,1.5,1.4,2.8H79.7z"/>
		<path fill="#FFFFFF" d="M87,5.2c0.5-0.2,1-0.4,1.6-0.4c1,0,1.8,0.3,2.2,0.9c0.4,0.6,0.7,1.6,0.7,3v5.7h1.3V9c0-2-0.3-3.3-1-4.2
			c-0.6-0.9-1.7-1.3-3.1-1.3c-0.8,0-1.5,0.1-2.1,0.5c-0.6,0.3-1.1,0.8-1.6,1.4c-0.3-0.6-0.8-1-1.5-1.4c-0.6-0.3-1.4-0.5-2.1-0.5
			c-0.7,0-1.3,0.1-1.8,0.4c-0.5,0.2-1,0.6-1.4,1.1V3.7h-1.3v10.8h1.3V9.2c0-0.9,0-1.6,0.1-2c0.1-0.4,0.2-0.7,0.3-1
			c0.3-0.5,0.6-0.8,1.1-1.1c0.5-0.2,1-0.4,1.6-0.4c1,0,1.7,0.3,2.2,0.9c0.5,0.6,0.7,1.5,0.7,2.8v6h1.3V9.2c0-0.9,0.1-1.6,0.1-2
			c0.1-0.4,0.2-0.7,0.3-1C86.2,5.8,86.6,5.5,87,5.2z"/>
		<path fill="#FFFFFF" d="M68.7,12.8v1.7H70V3.7h-1.3v1.7c-0.4-0.6-1-1.1-1.7-1.5c-0.7-0.3-1.4-0.5-2.2-0.5c0,0-0.1,0-0.1,0
			c-1.5,0-2.8,0.6-3.8,1.6c-1,1.1-1.5,2.4-1.5,4c0,1.6,0.5,2.9,1.5,4c1,1.1,2.3,1.6,3.8,1.6h0c0.8,0,1.6-0.2,2.3-0.5
			C67.7,13.9,68.3,13.4,68.7,12.8z M64.7,13.5C64.7,13.5,64.7,13.5,64.7,13.5c-1.1,0-2.1-0.4-2.8-1.2c-0.8-0.8-1.2-1.8-1.2-3.1
			c0-1.2,0.4-2.3,1.2-3.2c0.8-0.8,1.7-1.2,2.8-1.3c0,0,0,0,0.1,0c1,0,1.9,0.4,2.7,1.3c0.8,0.9,1.2,1.9,1.2,3c0,1.2-0.4,2.3-1.2,3.2
			C66.7,13,65.8,13.5,64.7,13.5z"/>
		<path fill="#FFFFFF" d="M92.5,27.4c-0.3-0.5-0.8-0.9-1.4-1.2c-0.2-0.1-0.5-0.2-1-0.3c-0.5-0.2-0.9-0.3-1.1-0.5
			c-0.3-0.2-0.5-0.4-0.6-0.6c-0.1-0.2-0.2-0.5-0.2-0.8c0-0.4,0.1-0.8,0.5-1.1c0.3-0.3,0.6-0.5,1.1-0.5c0.5,0,0.9,0.2,1.2,0.4
			c0.3,0.3,0.4,0.7,0.5,1.2h1.4c0-0.9-0.3-1.7-0.9-2.2c-0.5-0.5-1.2-0.8-2.1-0.8c-0.8,0-1.6,0.3-2.1,0.9c-0.6,0.6-0.9,1.3-0.9,2.2
			c0,0.8,0.2,1.4,0.5,1.8c0.4,0.4,1.1,0.9,2.3,1.3c0.7,0.3,1.2,0.6,1.5,0.9c0.3,0.3,0.4,0.7,0.4,1.3c0,0.5-0.2,1-0.5,1.3
			c-0.4,0.4-0.8,0.5-1.3,0.5c-0.5,0-1-0.2-1.4-0.7c-0.4-0.4-0.6-1-0.6-1.7v0h-1.4c0,1.1,0.3,2,1,2.7c0.6,0.7,1.4,1,2.4,1
			c1,0,1.8-0.3,2.4-0.9c0.6-0.6,1-1.4,1-2.3C93,28.5,92.9,27.9,92.5,27.4z"/>
		<polygon fill="#FFFFFF" points="71.5,17.8 70.1,17.8 70.1,21.4 68.1,21.4 68.1,22.8 70.1,22.8 70.1,32.2 71.5,32.2 71.5,22.8 
			73.5,22.8 73.5,21.4 71.5,21.4 		"/>
		<path fill="#FFFFFF" d="M75.8,3.6c-0.5,0-1,0.1-1.4,0.4c-0.4,0.2-0.7,0.6-1.1,1V3.7h-1.3v10.8h1.3V8c0-1,0.2-1.7,0.5-2.2
			c0.4-0.4,1-0.7,1.8-0.8V3.6z"/>
	</g>
	<path fill-rule="evenodd" clip-rule="evenodd" fill="#FFFFFF" d="M41.8,43.9l-6.9,0h-0.1c-0.3,0-0.3,0,0-0.2c0,0,0,0,0.1,0
		c7-4,8.9-10.5,9.4-15.4c0,0,0,0,0-0.1c0-0.1,0.1-0.1,0.1,0v0.1v13.1C44.4,42.7,43.2,43.9,41.8,43.9L41.8,43.9z M89.5,37.8
		L89.5,37.8c0.7,0,1.2,0.3,1.7,0.8c0.5,0.5,0.7,1.2,0.7,1.9c0,0.7-0.3,1.3-0.7,1.9c-0.5,0.5-1.1,0.8-1.7,0.8h0
		c-0.7,0-1.3-0.3-1.7-0.8c-0.5-0.5-0.7-1.2-0.7-2c0-0.7,0.3-1.4,0.7-1.9C88.3,38,88.8,37.8,89.5,37.8L89.5,37.8z M89.5,37L89.5,37
		c-1,0-1.7,0.3-2.4,1c-0.6,0.7-1,1.5-1,2.5c0,1,0.3,1.8,1,2.5c0.6,0.7,1.4,1,2.4,1l0,0c0.5,0,0.9-0.1,1.4-0.3
		c0.4-0.2,0.8-0.5,1.1-0.9v1h0.8v-8.9H92v1.7v1.5c-0.3-0.4-0.6-0.7-1.1-0.9C90.5,37.1,90,37,89.5,37L89.5,37z M75.2,44
		c0.5,0,1-0.1,1.4-0.3c0.4-0.2,0.8-0.5,1-0.9v1h0.8v-6.7h-0.8v1.1c-0.3-0.4-0.6-0.7-1-0.9c-0.4-0.2-0.9-0.3-1.4-0.3c0,0,0,0-0.1,0
		c-0.9,0-1.7,0.3-2.4,1c-0.6,0.7-1,1.5-1,2.5c0,1,0.3,1.8,1,2.5C73.5,43.7,74.3,44,75.2,44L75.2,44L75.2,44z M75.2,43.2
		c-0.7,0-1.3-0.3-1.7-0.8c-0.5-0.5-0.7-1.1-0.7-1.9c0-0.8,0.3-1.5,0.7-2c0.5-0.5,1.1-0.8,1.7-0.8c0,0,0,0,0.1,0
		c0.6,0,1.2,0.3,1.7,0.8c0.5,0.5,0.7,1.2,0.7,1.9c0,0.8-0.3,1.4-0.7,2C76.5,42.9,75.9,43.2,75.2,43.2C75.2,43.2,75.2,43.2,75.2,43.2
		L75.2,43.2z M79.8,37.1h0.8v0.8c0.3-0.3,0.5-0.5,0.9-0.7c0.3-0.1,0.7-0.2,1.1-0.2c0.5,0,0.9,0.1,1.3,0.3c0.4,0.2,0.6,0.4,0.9,0.8
		c0.1,0.2,0.3,0.5,0.3,0.8c0.1,0.3,0.1,0.8,0.1,1.4v3.5h-0.8v-3.7c0-0.8-0.2-1.4-0.4-1.7c-0.3-0.3-0.8-0.5-1.4-0.5
		c-0.4,0-0.7,0.1-1,0.2c-0.3,0.1-0.5,0.4-0.7,0.7c-0.1,0.2-0.2,0.4-0.2,0.6c-0.1,0.2-0.1,0.6-0.1,1.2v3.3h-0.8V37.1L79.8,37.1z
		 M65.7,37.7c0.7,0,1.3,0.3,1.8,0.8c0.5,0.5,0.7,1.2,0.7,1.9c0,0.8-0.2,1.4-0.7,1.9c-0.5,0.5-1.1,0.8-1.7,0.8h0
		c-0.7,0-1.3-0.3-1.7-0.8c-0.5-0.5-0.7-1.2-0.7-1.9c0-0.8,0.3-1.4,0.7-1.9C64.4,38,65,37.7,65.7,37.7C65.7,37.7,65.7,37.7,65.7,37.7
		L65.7,37.7z M65.7,36.9C65.7,36.9,65.7,36.9,65.7,36.9c-0.9,0-1.7,0.3-2.4,1c-0.6,0.7-1,1.5-1,2.5c0,1,0.3,1.8,1,2.5
		c0.6,0.7,1.4,1,2.4,1h0c0.9,0,1.7-0.4,2.4-1.1c0.6-0.7,1-1.6,1-2.6c0-1-0.3-1.8-1-2.5C67.4,37.3,66.6,36.9,65.7,36.9L65.7,36.9z
		 M70.1,43.8v-8.9h0.8v8.9H70.1L70.1,43.8z M58.4,44L58.4,44c1,0,1.7-0.3,2.4-1c0.6-0.7,1-1.5,1-2.5c0-1-0.3-1.9-1-2.5
		c-0.6-0.7-1.4-1-2.4-1c0,0,0,0-0.1,0c-0.5,0-1,0.1-1.4,0.3c-0.4,0.2-0.8,0.5-1,0.9v-1.1h-0.8V46h0.8v-1.8v-1v-0.4
		c0.3,0.4,0.6,0.7,1.1,0.9C57.4,43.9,57.9,44,58.4,44L58.4,44z M58.4,43.2L58.4,43.2c-0.7,0-1.2-0.3-1.7-0.8c-0.5-0.6-0.7-1.2-0.7-2
		c0-0.7,0.3-1.3,0.7-1.9c0.5-0.5,1.1-0.8,1.7-0.8c0,0,0.1,0,0.1,0c0.7,0,1.3,0.3,1.7,0.8c0.5,0.5,0.7,1.2,0.7,2
		c0,0.8-0.3,1.4-0.7,1.9C59.7,43,59.1,43.2,58.4,43.2L58.4,43.2z"/>
</g>
</svg>
