<?xml version="1.0" encoding="utf-8"?>
<!-- Generator: Adobe Illustrator 18.0.0, SVG Export Plug-In . SVG Version: 6.00 Build 0)  -->
<!DOCTYPE svg PUBLIC "-//W3C//DTD SVG 1.1//EN" "http://www.w3.org/Graphics/SVG/1.1/DTD/svg11.dtd">
<svg version="1.1" id="Warstwa_1" xmlns="http://www.w3.org/2000/svg" xmlns:xlink="http://www.w3.org/1999/xlink" x="0px" y="0px"
	 viewBox="0 0 27 27" enable-background="new 0 0 27 27" xml:space="preserve">
<g>
	<path d="M18.7,21.9c0,1.1-0.9,1.9-1.9,1.9H5.1c-1.1,0-1.9-0.9-1.9-1.9V10.3c0-1.1,0.9-1.9,1.9-1.9h3.6l3.1-3.1H5.1
		C2.3,5.2,0,7.5,0,10.3v11.7C0,24.7,2.3,27,5.1,27h11.7c2.8,0,5.1-2.3,5.1-5.1v-6.6l-3.1,3.1V21.9z M23.4,0H12.8
		c-2,0-1.8,0.5-0.8,1.6l3.3,3.3l-5.7,5.7c-1.2,1.2-1.2,3.1,0,4.3l2.5,2.5c1.2,1.2,3.1,1.2,4.3,0l5.7-5.7l3.3,3.3
		c1.1,1.1,1.6,1.2,1.6-0.8V3.6C27,0,27,0,23.4,0z"/>
</g>
</svg>
