<?xml version="1.0" encoding="utf-8"?>
<!-- Generator: Adobe Illustrator 18.0.0, SVG Export Plug-In . SVG Version: 6.00 Build 0)  -->
<!DOCTYPE svg PUBLIC "-//W3C//DTD SVG 1.1//EN" "http://www.w3.org/Graphics/SVG/1.1/DTD/svg11.dtd">
<svg version="1.1" id="Warstwa_1" xmlns="http://www.w3.org/2000/svg" xmlns:xlink="http://www.w3.org/1999/xlink" x="0px" y="0px"
	 viewBox="0 0 43 65" enable-background="new 0 0 43 65" xml:space="preserve">
<g>
	<g>
		<defs>
			<rect id="SVGID_1_" x="-0.1" width="43" height="65"/>
		</defs>
		<clipPath id="SVGID_2_">
			<use xlink:href="#SVGID_1_"  overflow="visible"/>
		</clipPath>
		<path clip-path="url(#SVGID_2_)" d="M6.9,64.9h28.9l7-40.3h-43L6.9,64.9z M6.9,64.9"/>
	</g>
	<path d="M30.7,7.2l-4.5-0.1L26,22.6h4.6L30.7,7.2z M30.7,7.2"/>
	<path d="M37.7,17.6l-4.5-0.1L33,22.6h4.5L37.7,17.6z M37.7,17.6"/>
	<path d="M17,22.6l-0.2-9l-1.5-8.4l-4.5,0.8l3.5,16.6H17z M17,22.6"/>
	<path d="M11.2,22.7l-1.6-6.6L5.1,17l1.5,5.8H11.2z M11.2,22.7"/>
	<path d="M23.8,22.6l0-22.6l-4.5,0.1l0,22.6H23.8z M23.8,22.6"/>
</g>
</svg>
