<?xml version="1.0" encoding="utf-8"?>
<!-- Generator: Adobe Illustrator 18.0.0, SVG Export Plug-In . SVG Version: 6.00 Build 0)  -->
<!DOCTYPE svg PUBLIC "-//W3C//DTD SVG 1.1//EN" "http://www.w3.org/Graphics/SVG/1.1/DTD/svg11.dtd">
<svg version="1.1" id="Warstwa_1" xmlns="http://www.w3.org/2000/svg" xmlns:xlink="http://www.w3.org/1999/xlink" x="0px" y="0px"
	 viewBox="0 0 53 41" enable-background="new 0 0 53 41" xml:space="preserve">
<g>
	<path d="M49.2,5c-2.1,0-3.8,1.8-3.8,4c0,1.4,0.7,2.7,1.8,3.4c-2.3,3.3-5.6,7.1-8.9,8.2C33.9,22,29.7,13,27.7,7.7
		c1.5-0.5,2.6-2,2.6-3.7c0-2.2-1.7-4-3.8-4c-2.1,0-3.8,1.8-3.8,4c0,1.7,1.1,3.2,2.6,3.7c-2,5.3-6.1,14.3-10.5,12.8
		c-3.3-1.1-6.6-4.9-8.9-8.2c1.1-0.7,1.8-1.9,1.8-3.4c0-2.2-1.7-4-3.8-4C1.7,5,0,6.8,0,8.9c0,2.2,1.7,4,3.8,4c0,0,0.1,0,0.1,0
		l5.2,22.8h34.8l5.2-22.8c0,0,0.1,0,0.1,0c2.1,0,3.8-1.8,3.8-4C53,6.8,51.3,5,49.2,5L49.2,5z M49.2,5"/>
	<rect x="9.3" y="36.5" width="34.4" height="4.5"/>
</g>
</svg>
